<svg version="1.1" id="Layer_1" xmlns="http://www.w3.org/2000/svg" xmlns:xlink="http://www.w3.org/1999/xlink" x="0px" y="0px"
	 width="100%" viewBox="0 0 512 512" enable-background="new 0 0 512 512" xml:space="preserve">
<path fill="#000000" opacity="1.000000" stroke="none" 
	d="
M254.000000,513.000000 
	C169.353867,513.000000 85.207733,513.000000 1.030800,513.000000 
	C1.030800,342.395508 1.030800,171.791016 1.030800,1.093254 
	C171.562820,1.093254 342.125702,1.093254 512.844299,1.093254 
	C512.844299,171.666550 512.844299,342.333252 512.844299,513.000000 
	C426.790985,513.000000 340.645477,513.000000 254.000000,513.000000 
M481.259705,342.515442 
	C482.726746,342.515442 484.193817,342.515442 485.758789,342.515442 
	C485.902283,341.461670 486.064178,340.828369 486.063904,340.195129 
	C486.047394,300.037659 486.339630,259.876526 485.880280,219.723999 
	C485.553314,191.145111 457.571777,168.333878 429.294098,172.585907 
	C419.028992,174.129456 410.037170,178.290817 402.186279,185.099365 
	C392.077515,176.282669 380.594696,171.940002 367.612335,172.149078 
	C339.717133,172.598328 318.346130,194.795395 318.208099,223.700943 
	C318.023499,262.358276 318.161072,301.017181 318.171417,339.675385 
	C318.171631,340.464813 318.308105,341.254181 318.388947,342.129578 
	C329.675140,342.129578 340.710632,342.129578 351.933563,342.129578 
	C351.933563,331.920166 351.933289,322.095764 351.933624,312.271393 
	C351.934631,282.444580 351.886353,252.617645 351.965088,222.791046 
	C351.991119,212.941513 358.989746,205.936874 368.476196,205.874329 
	C378.623505,205.807404 385.256989,213.078201 385.273132,224.602646 
	C385.325409,261.927765 385.293640,299.252960 385.294189,336.578125 
	C385.294220,338.368256 385.294189,340.158386 385.294189,342.155579 
	C396.769257,342.155579 407.793243,342.155579 419.004547,342.155579 
	C419.004547,323.640381 419.004303,305.484436 419.004608,287.328491 
	C419.004913,265.833191 418.936310,244.337585 419.036865,222.842743 
	C419.083954,212.774948 426.309174,205.742416 436.063507,205.891174 
	C446.024963,206.043106 452.659302,213.552231 452.674530,225.003098 
	C452.724243,262.328217 452.693848,299.653412 452.694244,336.978577 
	C452.694244,338.749146 452.694183,340.519714 452.694183,342.515411 
	C462.330688,342.515411 471.317566,342.515411 481.259705,342.515442 
M276.435822,193.064896 
	C264.135437,181.651001 249.745316,174.945282 232.846466,174.728394 
	C210.019196,174.435410 187.186371,174.571335 164.355911,174.552933 
	C163.934601,174.552582 163.512985,174.921844 163.126831,175.102158 
	C163.126831,230.835175 163.126831,286.453522 163.126831,342.233093 
	C174.242020,342.233093 185.150513,342.233093 196.538879,342.233093 
	C196.538879,331.062561 196.538879,320.165009 196.538879,308.729706 
	C208.655121,308.729706 220.296097,308.631104 231.930023,308.872894 
	C233.178146,308.898834 234.887344,310.671722 235.525574,312.035370 
	C238.550995,318.499573 241.972916,324.902191 243.941711,331.706329 
	C246.549957,340.720337 251.499863,343.879944 260.810425,342.711975 
	C268.420898,341.757294 276.246490,342.517639 284.598907,342.517639 
	C278.146576,327.332306 272.062988,313.014740 266.315460,299.488098 
	C272.143524,293.786041 278.206482,288.955658 282.921753,283.049347 
	C302.889374,258.038208 303.240051,219.719101 276.435822,193.064896 
M110.003937,275.303131 
	C110.689529,274.804108 111.967850,274.311584 111.973381,273.805176 
	C112.089043,263.209503 112.060715,252.612274 112.060715,241.694214 
	C95.039101,241.694214 78.603279,241.694214 62.061443,241.694214 
	C62.061443,230.339508 62.061443,219.320358 62.061443,207.855255 
	C90.138535,207.855255 117.863724,207.855255 145.669296,207.855255 
	C145.669296,196.625763 145.669296,185.847961 145.669296,174.776947 
	C106.434456,174.776947 67.369598,174.776947 28.255299,174.776947 
	C28.255299,230.701508 28.255299,286.426147 28.255299,342.226837 
	C39.436283,342.226837 50.354195,342.226837 61.747803,342.226837 
	C61.747803,319.864410 61.747803,297.786011 61.747803,275.306824 
	C77.843155,275.306824 93.462593,275.306824 110.003937,275.303131 
z"/>
<path fill="#FCFCFC" opacity="1.000000" stroke="none" 
	d="
M480.782074,342.515442 
	C471.317566,342.515411 462.330688,342.515411 452.694183,342.515411 
	C452.694183,340.519714 452.694244,338.749146 452.694244,336.978577 
	C452.693848,299.653412 452.724243,262.328217 452.674530,225.003098 
	C452.659302,213.552231 446.024963,206.043106 436.063507,205.891174 
	C426.309174,205.742416 419.083954,212.774948 419.036865,222.842743 
	C418.936310,244.337585 419.004913,265.833191 419.004608,287.328491 
	C419.004303,305.484436 419.004547,323.640381 419.004547,342.155579 
	C407.793243,342.155579 396.769257,342.155579 385.294189,342.155579 
	C385.294189,340.158386 385.294220,338.368256 385.294189,336.578125 
	C385.293640,299.252960 385.325409,261.927765 385.273132,224.602646 
	C385.256989,213.078201 378.623505,205.807404 368.476196,205.874329 
	C358.989746,205.936874 351.991119,212.941513 351.965088,222.791046 
	C351.886353,252.617645 351.934631,282.444580 351.933624,312.271393 
	C351.933289,322.095764 351.933563,331.920166 351.933563,342.129578 
	C340.710632,342.129578 329.675140,342.129578 318.388947,342.129578 
	C318.308105,341.254181 318.171631,340.464813 318.171417,339.675385 
	C318.161072,301.017181 318.023499,262.358276 318.208099,223.700943 
	C318.346130,194.795395 339.717133,172.598328 367.612335,172.149078 
	C380.594696,171.940002 392.077515,176.282669 402.186279,185.099365 
	C410.037170,178.290817 419.028992,174.129456 429.294098,172.585907 
	C457.571777,168.333878 485.553314,191.145111 485.880280,219.723999 
	C486.339630,259.876526 486.047394,300.037659 486.063904,340.195129 
	C486.064178,340.828369 485.902283,341.461670 485.758789,342.515442 
	C484.193817,342.515442 482.726746,342.515442 480.782074,342.515442 
z"/>
<path fill="#FCFCFC" opacity="1.000000" stroke="none" 
	d="
M276.687622,193.311783 
	C303.240051,219.719101 302.889374,258.038208 282.921753,283.049347 
	C278.206482,288.955658 272.143524,293.786041 266.315460,299.488098 
	C272.062988,313.014740 278.146576,327.332306 284.598907,342.517639 
	C276.246490,342.517639 268.420898,341.757294 260.810425,342.711975 
	C251.499863,343.879944 246.549957,340.720337 243.941711,331.706329 
	C241.972916,324.902191 238.550995,318.499573 235.525574,312.035370 
	C234.887344,310.671722 233.178146,308.898834 231.930023,308.872894 
	C220.296097,308.631104 208.655121,308.729706 196.538879,308.729706 
	C196.538879,320.165009 196.538879,331.062561 196.538879,342.233093 
	C185.150513,342.233093 174.242020,342.233093 163.126831,342.233093 
	C163.126831,286.453522 163.126831,230.835175 163.126831,175.102158 
	C163.512985,174.921844 163.934601,174.552582 164.355911,174.552933 
	C187.186371,174.571335 210.019196,174.435410 232.846466,174.728394 
	C249.745316,174.945282 264.135437,181.651001 276.687622,193.311783 
M212.502686,208.075958 
	C207.244110,208.075958 201.985550,208.075958 196.822845,208.075958 
	C196.822845,230.808701 196.822845,252.871689 196.822845,275.146667 
	C208.751877,275.146667 220.391174,275.546631 231.992508,275.053497 
	C249.654297,274.302704 262.733063,260.660950 263.737061,242.705017 
	C264.626801,226.793549 252.785858,211.646149 236.386368,208.957642 
	C228.910751,207.732086 221.138840,208.313904 212.502686,208.075958 
z"/>
<path fill="#FCFCFC" opacity="1.000000" stroke="none" 
	d="
M109.542984,275.304993 
	C93.462593,275.306824 77.843155,275.306824 61.747803,275.306824 
	C61.747803,297.786011 61.747803,319.864410 61.747803,342.226837 
	C50.354195,342.226837 39.436283,342.226837 28.255299,342.226837 
	C28.255299,286.426147 28.255299,230.701508 28.255299,174.776947 
	C67.369598,174.776947 106.434456,174.776947 145.669296,174.776947 
	C145.669296,185.847961 145.669296,196.625763 145.669296,207.855255 
	C117.863724,207.855255 90.138535,207.855255 62.061443,207.855255 
	C62.061443,219.320358 62.061443,230.339508 62.061443,241.694214 
	C78.603279,241.694214 95.039101,241.694214 112.060715,241.694214 
	C112.060715,252.612274 112.089043,263.209503 111.973381,273.805176 
	C111.967850,274.311584 110.689529,274.804108 109.542984,275.304993 
z"/>
<path fill="#010101" opacity="1.000000" stroke="none" 
	d="
M213.002014,208.075958 
	C221.138840,208.313904 228.910751,207.732086 236.386368,208.957642 
	C252.785858,211.646149 264.626801,226.793549 263.737061,242.705017 
	C262.733063,260.660950 249.654297,274.302704 231.992508,275.053497 
	C220.391174,275.546631 208.751877,275.146667 196.822845,275.146667 
	C196.822845,252.871689 196.822845,230.808701 196.822845,208.075958 
	C201.985550,208.075958 207.244110,208.075958 213.002014,208.075958 
z"/>
</svg>